<?xml version="1.0" standalone="no"?>
<!DOCTYPE svg PUBLIC "-//W3C//DTD SVG 20010904//EN"
 "http://www.w3.org/TR/2001/REC-SVG-20010904/DTD/svg10.dtd">
<svg version="1.0" xmlns="http://www.w3.org/2000/svg"
 width="512.000000pt" height="512.000000pt" viewBox="0 0 512.000000 512.000000"
 preserveAspectRatio="xMidYMid meet">
<metadata>
Created by potrace 1.14, written by Peter Selinger 2001-2017
</metadata>
<g transform="translate(0.000000,512.000000) scale(0.100000,-0.100000)"
fill="#000000" stroke="none">
<path d="M1977 5074 c-1 -1 -42 -4 -90 -8 -49 -3 -92 -8 -95 -10 -4 -2 -30 -6
-57 -10 -28 -3 -96 -17 -150 -31 -55 -15 -107 -28 -115 -30 -91 -21 -328 -128
-458 -207 -274 -165 -545 -433 -697 -688 -22 -36 -44 -72 -50 -80 -24 -32
-125 -259 -153 -345 -33 -98 -67 -227 -76 -290 -9 -60 -15 -97 -22 -130 -12
-63 -11 -392 1 -495 17 -136 20 -148 55 -284 67 -260 190 -511 362 -739 78
-104 278 -304 386 -386 250 -189 553 -327 846 -385 172 -35 210 -38 401 -41
395 -5 765 97 1106 306 55 33 102 59 104 57 2 -1 266 -265 587 -585 627 -626
623 -622 745 -642 164 -25 315 55 390 207 25 50 28 68 28 152 0 167 26 134
-647 810 l-583 586 53 84 c120 194 237 478 267 650 3 19 10 53 15 75 31 141
42 386 26 570 -8 94 -12 122 -46 289 -30 145 -150 442 -233 573 -15 23 -28 47
-29 52 -4 13 220 241 236 241 7 0 16 -4 22 -9 40 -37 182 -43 269 -10 90 34
182 130 205 214 6 19 15 20 260 21 140 1 261 2 268 3 8 1 12 25 12 86 l0 85
-264 0 -263 0 -32 64 c-97 197 -343 254 -522 119 -113 -85 -157 -235 -113
-380 10 -32 18 -62 19 -66 0 -4 -47 -55 -105 -112 -89 -89 -106 -102 -114 -87
-35 66 -245 276 -366 367 -36 27 -67 52 -70 55 -15 18 -206 130 -298 175 -146
71 -314 131 -452 161 -19 4 -37 8 -40 9 -3 1 -27 5 -55 10 -27 4 -58 9 -67 11
-69 12 -390 27 -401 18z m2356 -281 c89 -46 117 -159 61 -245 -47 -72 -139
-97 -218 -58 -135 66 -122 266 21 315 44 15 92 11 136 -12z"/>
</g>
</svg>
